<svg width="121" height="28" viewBox="0 0 121 28" fill="none" xmlns="http://www.w3.org/2000/svg">
<g filter="url(#filter0_d_255_9737)">
<mask id="path-1-outside-1_255_9737" maskUnits="userSpaceOnUse" x="3" y="-1" width="115" height="22" fill="black">
<rect fill="white" x="3" y="-1" width="115" height="22"/>
<path d="M18.576 9.332C18.688 9.332 18.7813 9.37867 18.856 9.472C18.9307 9.54667 18.968 9.63067 18.968 9.724V15.912C18.968 16.472 18.856 17.004 18.632 17.508C18.4267 18.012 18.1373 18.4507 17.764 18.824C17.3907 19.1787 16.952 19.468 16.448 19.692C15.9627 19.8973 15.44 20 14.88 20H8.636C8.076 20 7.544 19.8973 7.04 19.692C6.55467 19.468 6.12533 19.1787 5.752 18.824C5.37867 18.4507 5.08 18.012 4.856 17.508C4.65067 17.004 4.548 16.472 4.548 15.912V4.88C4.548 4.32 4.65067 3.79733 4.856 3.312C5.08 2.808 5.37867 2.36933 5.752 1.996C6.12533 1.62267 6.55467 1.33333 7.04 1.128C7.544 0.903999 8.076 0.791999 8.636 0.791999H14.88C15.44 0.791999 15.9627 0.903999 16.448 1.128C16.952 1.33333 17.3813 1.62267 17.736 1.996C18.1093 2.35067 18.408 2.78 18.632 3.284C18.856 3.76933 18.968 4.292 18.968 4.852V6.168C18.968 6.42933 18.8373 6.56 18.576 6.56H17.232C16.9707 6.56 16.84 6.42933 16.84 6.168V4.852C16.8213 4.31067 16.6253 3.85333 16.252 3.48C15.8787 3.10667 15.4213 2.92 14.88 2.92H8.636C8.09467 2.92 7.628 3.116 7.236 3.508C6.86267 3.88133 6.676 4.33867 6.676 4.88V15.912C6.676 16.4533 6.86267 16.92 7.236 17.312C7.628 17.6853 8.09467 17.872 8.636 17.872H14.88C15.4213 17.872 15.8787 17.6853 16.252 17.312C16.644 16.92 16.84 16.4533 16.84 15.912V11.46H12.248C12.1547 11.46 12.0613 11.4227 11.968 11.348C11.8933 11.2733 11.856 11.18 11.856 11.068V9.724C11.856 9.63067 11.8933 9.54667 11.968 9.472C12.0613 9.37867 12.1547 9.332 12.248 9.332H18.576ZM25.1921 0.791999H26.5361C26.7974 0.791999 26.9281 0.922665 26.9281 1.184V17.872H37.8761C37.9881 17.872 38.0814 17.9187 38.1561 18.012C38.2308 18.0867 38.2681 18.1707 38.2681 18.264V19.608C38.2681 19.8693 38.1374 20 37.8761 20H25.1921C25.0988 20 25.0054 19.9627 24.9121 19.888C24.8374 19.8133 24.8001 19.72 24.8001 19.608V1.184C24.8001 1.072 24.8374 0.978666 24.9121 0.903999C25.0054 0.829332 25.0988 0.791999 25.1921 0.791999ZM53.3955 0.791999C53.5075 0.791999 53.6102 0.829332 53.7035 0.903999C53.8155 0.978666 53.8902 1.06267 53.9275 1.156L57.8195 10.9C57.8569 10.9933 57.8849 11.1147 57.9035 11.264C57.9409 11.4133 57.9595 11.544 57.9595 11.656V19.608C57.9595 19.8693 57.8289 20 57.5675 20H56.2515C55.9902 20 55.8595 19.8693 55.8595 19.608V14.428H45.6955V19.608C45.6955 19.8693 45.5649 20 45.3035 20H43.9595C43.6982 20 43.5675 19.8693 43.5675 19.608V11.656C43.5675 11.544 43.5769 11.4133 43.5955 11.264C43.6329 11.1147 43.6702 10.9933 43.7075 10.9L47.5995 1.156C47.6369 1.06267 47.7115 0.978666 47.8235 0.903999C47.9355 0.829332 48.0382 0.791999 48.1315 0.791999H53.3955ZM55.8595 12.328V11.656L52.3595 2.92H49.1955L45.6955 11.656V12.328H55.8595ZM75.383 19.608V11.572L65.219 3.172V19.608C65.219 19.8693 65.0883 20 64.827 20H63.483C63.3896 20 63.2963 19.9627 63.203 19.888C63.1283 19.8133 63.091 19.72 63.091 19.608V1.184C63.091 1.072 63.1283 0.978666 63.203 0.903999C63.2963 0.829332 63.3896 0.791999 63.483 0.791999H65.359C65.6203 0.791999 65.8536 0.875999 66.059 1.044L75.383 8.744V1.184C75.383 0.922665 75.5136 0.791999 75.775 0.791999H77.119C77.3803 0.791999 77.511 0.922665 77.511 1.184V19.608C77.511 19.8693 77.3803 20 77.119 20H75.775C75.5136 20 75.383 19.8693 75.383 19.608ZM97.0344 6.168C97.0344 6.42933 96.9037 6.56 96.6424 6.56H95.2984C95.0371 6.56 94.9064 6.42933 94.9064 6.168V4.852C94.8877 4.31067 94.6917 3.85333 94.3184 3.48C93.9451 3.10667 93.4877 2.92 92.9464 2.92H86.7024C86.1611 2.92 85.6944 3.116 85.3024 3.508C84.9291 3.88133 84.7424 4.33867 84.7424 4.88V15.912C84.7424 16.4533 84.9291 16.92 85.3024 17.312C85.6944 17.6853 86.1611 17.872 86.7024 17.872H92.9464C93.4877 17.872 93.9451 17.6947 94.3184 17.34C94.6917 16.9667 94.8877 16.5093 94.9064 15.968V14.624C94.9064 14.5307 94.9437 14.4467 95.0184 14.372C95.0931 14.2787 95.1864 14.232 95.2984 14.232H96.6424C96.7544 14.232 96.8477 14.2787 96.9224 14.372C96.9971 14.4467 97.0344 14.5307 97.0344 14.624V15.968C97.0344 16.528 96.9224 17.0507 96.6984 17.536C96.4744 18.0213 96.1757 18.4507 95.8024 18.824C95.4477 19.1787 95.0184 19.468 94.5144 19.692C94.0291 19.8973 93.5064 20 92.9464 20H86.7024C86.1424 20 85.6104 19.8973 85.1064 19.692C84.6211 19.468 84.1917 19.1787 83.8184 18.824C83.4637 18.4507 83.1744 18.012 82.9504 17.508C82.7451 17.004 82.6424 16.472 82.6424 15.912V4.88C82.6424 4.32 82.7451 3.79733 82.9504 3.312C83.1744 2.808 83.4637 2.36933 83.8184 1.996C84.1917 1.62267 84.6211 1.33333 85.1064 1.128C85.6104 0.903999 86.1424 0.791999 86.7024 0.791999H92.9464C93.5064 0.791999 94.0291 0.903999 94.5144 1.128C95.0184 1.33333 95.4477 1.62267 95.8024 1.996C96.1757 2.35067 96.4744 2.78 96.6984 3.284C96.9224 3.76933 97.0344 4.292 97.0344 4.852V6.168ZM102.586 19.608V1.184C102.586 0.922665 102.717 0.791999 102.978 0.791999H116.026C116.287 0.791999 116.418 0.922665 116.418 1.184V2.528C116.418 2.78933 116.287 2.92 116.026 2.92H104.686V9.332H114.514C114.607 9.332 114.691 9.37867 114.766 9.472C114.859 9.54667 114.906 9.63067 114.906 9.724V11.068C114.906 11.18 114.859 11.2733 114.766 11.348C114.691 11.4227 114.607 11.46 114.514 11.46H104.686V17.872H116.026C116.138 17.872 116.231 17.9187 116.306 18.012C116.381 18.0867 116.418 18.1707 116.418 18.264V19.608C116.418 19.8693 116.287 20 116.026 20H102.978C102.717 20 102.586 19.8693 102.586 19.608Z"/>
</mask>
<path d="M18.576 9.332C18.688 9.332 18.7813 9.37867 18.856 9.472C18.9307 9.54667 18.968 9.63067 18.968 9.724V15.912C18.968 16.472 18.856 17.004 18.632 17.508C18.4267 18.012 18.1373 18.4507 17.764 18.824C17.3907 19.1787 16.952 19.468 16.448 19.692C15.9627 19.8973 15.44 20 14.88 20H8.636C8.076 20 7.544 19.8973 7.04 19.692C6.55467 19.468 6.12533 19.1787 5.752 18.824C5.37867 18.4507 5.08 18.012 4.856 17.508C4.65067 17.004 4.548 16.472 4.548 15.912V4.88C4.548 4.32 4.65067 3.79733 4.856 3.312C5.08 2.808 5.37867 2.36933 5.752 1.996C6.12533 1.62267 6.55467 1.33333 7.04 1.128C7.544 0.903999 8.076 0.791999 8.636 0.791999H14.88C15.44 0.791999 15.9627 0.903999 16.448 1.128C16.952 1.33333 17.3813 1.62267 17.736 1.996C18.1093 2.35067 18.408 2.78 18.632 3.284C18.856 3.76933 18.968 4.292 18.968 4.852V6.168C18.968 6.42933 18.8373 6.56 18.576 6.56H17.232C16.9707 6.56 16.84 6.42933 16.84 6.168V4.852C16.8213 4.31067 16.6253 3.85333 16.252 3.48C15.8787 3.10667 15.4213 2.92 14.88 2.92H8.636C8.09467 2.92 7.628 3.116 7.236 3.508C6.86267 3.88133 6.676 4.33867 6.676 4.88V15.912C6.676 16.4533 6.86267 16.92 7.236 17.312C7.628 17.6853 8.09467 17.872 8.636 17.872H14.88C15.4213 17.872 15.8787 17.6853 16.252 17.312C16.644 16.92 16.84 16.4533 16.84 15.912V11.46H12.248C12.1547 11.46 12.0613 11.4227 11.968 11.348C11.8933 11.2733 11.856 11.18 11.856 11.068V9.724C11.856 9.63067 11.8933 9.54667 11.968 9.472C12.0613 9.37867 12.1547 9.332 12.248 9.332H18.576ZM25.1921 0.791999H26.5361C26.7974 0.791999 26.9281 0.922665 26.9281 1.184V17.872H37.8761C37.9881 17.872 38.0814 17.9187 38.1561 18.012C38.2308 18.0867 38.2681 18.1707 38.2681 18.264V19.608C38.2681 19.8693 38.1374 20 37.8761 20H25.1921C25.0988 20 25.0054 19.9627 24.9121 19.888C24.8374 19.8133 24.8001 19.72 24.8001 19.608V1.184C24.8001 1.072 24.8374 0.978666 24.9121 0.903999C25.0054 0.829332 25.0988 0.791999 25.1921 0.791999ZM53.3955 0.791999C53.5075 0.791999 53.6102 0.829332 53.7035 0.903999C53.8155 0.978666 53.8902 1.06267 53.9275 1.156L57.8195 10.9C57.8569 10.9933 57.8849 11.1147 57.9035 11.264C57.9409 11.4133 57.9595 11.544 57.9595 11.656V19.608C57.9595 19.8693 57.8289 20 57.5675 20H56.2515C55.9902 20 55.8595 19.8693 55.8595 19.608V14.428H45.6955V19.608C45.6955 19.8693 45.5649 20 45.3035 20H43.9595C43.6982 20 43.5675 19.8693 43.5675 19.608V11.656C43.5675 11.544 43.5769 11.4133 43.5955 11.264C43.6329 11.1147 43.6702 10.9933 43.7075 10.9L47.5995 1.156C47.6369 1.06267 47.7115 0.978666 47.8235 0.903999C47.9355 0.829332 48.0382 0.791999 48.1315 0.791999H53.3955ZM55.8595 12.328V11.656L52.3595 2.92H49.1955L45.6955 11.656V12.328H55.8595ZM75.383 19.608V11.572L65.219 3.172V19.608C65.219 19.8693 65.0883 20 64.827 20H63.483C63.3896 20 63.2963 19.9627 63.203 19.888C63.1283 19.8133 63.091 19.72 63.091 19.608V1.184C63.091 1.072 63.1283 0.978666 63.203 0.903999C63.2963 0.829332 63.3896 0.791999 63.483 0.791999H65.359C65.6203 0.791999 65.8536 0.875999 66.059 1.044L75.383 8.744V1.184C75.383 0.922665 75.5136 0.791999 75.775 0.791999H77.119C77.3803 0.791999 77.511 0.922665 77.511 1.184V19.608C77.511 19.8693 77.3803 20 77.119 20H75.775C75.5136 20 75.383 19.8693 75.383 19.608ZM97.0344 6.168C97.0344 6.42933 96.9037 6.56 96.6424 6.56H95.2984C95.0371 6.56 94.9064 6.42933 94.9064 6.168V4.852C94.8877 4.31067 94.6917 3.85333 94.3184 3.48C93.9451 3.10667 93.4877 2.92 92.9464 2.92H86.7024C86.1611 2.92 85.6944 3.116 85.3024 3.508C84.9291 3.88133 84.7424 4.33867 84.7424 4.88V15.912C84.7424 16.4533 84.9291 16.92 85.3024 17.312C85.6944 17.6853 86.1611 17.872 86.7024 17.872H92.9464C93.4877 17.872 93.9451 17.6947 94.3184 17.34C94.6917 16.9667 94.8877 16.5093 94.9064 15.968V14.624C94.9064 14.5307 94.9437 14.4467 95.0184 14.372C95.0931 14.2787 95.1864 14.232 95.2984 14.232H96.6424C96.7544 14.232 96.8477 14.2787 96.9224 14.372C96.9971 14.4467 97.0344 14.5307 97.0344 14.624V15.968C97.0344 16.528 96.9224 17.0507 96.6984 17.536C96.4744 18.0213 96.1757 18.4507 95.8024 18.824C95.4477 19.1787 95.0184 19.468 94.5144 19.692C94.0291 19.8973 93.5064 20 92.9464 20H86.7024C86.1424 20 85.6104 19.8973 85.1064 19.692C84.6211 19.468 84.1917 19.1787 83.8184 18.824C83.4637 18.4507 83.1744 18.012 82.9504 17.508C82.7451 17.004 82.6424 16.472 82.6424 15.912V4.88C82.6424 4.32 82.7451 3.79733 82.9504 3.312C83.1744 2.808 83.4637 2.36933 83.8184 1.996C84.1917 1.62267 84.6211 1.33333 85.1064 1.128C85.6104 0.903999 86.1424 0.791999 86.7024 0.791999H92.9464C93.5064 0.791999 94.0291 0.903999 94.5144 1.128C95.0184 1.33333 95.4477 1.62267 95.8024 1.996C96.1757 2.35067 96.4744 2.78 96.6984 3.284C96.9224 3.76933 97.0344 4.292 97.0344 4.852V6.168ZM102.586 19.608V1.184C102.586 0.922665 102.717 0.791999 102.978 0.791999H116.026C116.287 0.791999 116.418 0.922665 116.418 1.184V2.528C116.418 2.78933 116.287 2.92 116.026 2.92H104.686V9.332H114.514C114.607 9.332 114.691 9.37867 114.766 9.472C114.859 9.54667 114.906 9.63067 114.906 9.724V11.068C114.906 11.18 114.859 11.2733 114.766 11.348C114.691 11.4227 114.607 11.46 114.514 11.46H104.686V17.872H116.026C116.138 17.872 116.231 17.9187 116.306 18.012C116.381 18.0867 116.418 18.1707 116.418 18.264V19.608C116.418 19.8693 116.287 20 116.026 20H102.978C102.717 20 102.586 19.8693 102.586 19.608Z" fill="url(#paint0_linear_255_9737)"/>
<path d="M18.856 9.472L18.0751 10.0967L18.1097 10.1399L18.1489 10.1791L18.856 9.472ZM18.632 17.508L17.7182 17.1019L17.7118 17.1162L17.7059 17.1307L18.632 17.508ZM17.764 18.824L18.4528 19.549L18.462 19.5402L18.4711 19.5311L17.764 18.824ZM16.448 19.692L16.8376 20.613L16.8459 20.6095L16.8541 20.6058L16.448 19.692ZM7.04 19.692L6.62094 20.6L6.64162 20.6095L6.6627 20.6181L7.04 19.692ZM5.752 18.824L5.04489 19.5311L5.05396 19.5402L5.06325 19.549L5.752 18.824ZM4.856 17.508L3.92991 17.8853L3.93582 17.8998L3.94219 17.9141L4.856 17.508ZM4.856 3.312L3.94219 2.90586L3.93854 2.91408L3.93503 2.92236L4.856 3.312ZM5.752 1.996L6.45911 2.70311L6.45911 2.70311L5.752 1.996ZM7.04 1.128L7.42964 2.04897L7.43792 2.04546L7.44614 2.04181L7.04 1.128ZM16.448 1.128L16.0289 2.03596L16.0496 2.0455L16.0707 2.05409L16.448 1.128ZM17.736 1.996L17.011 2.68475L17.0287 2.70334L17.0473 2.721L17.736 1.996ZM18.632 3.284L17.7182 3.69014L17.7211 3.69662L17.724 3.70306L18.632 3.284ZM16.84 4.852H17.84V4.83476L17.8394 4.81754L16.84 4.852ZM16.252 3.48L15.5449 4.18711L15.5449 4.18711L16.252 3.48ZM7.236 3.508L6.52889 2.80089L6.52889 2.80089L7.236 3.508ZM7.236 17.312L6.51186 18.0017L6.52868 18.0193L6.54635 18.0361L7.236 17.312ZM16.252 17.312L15.5449 16.6049L15.5449 16.6049L16.252 17.312ZM16.84 11.46H17.84V10.46H16.84V11.46ZM11.968 11.348L11.2609 12.0551L11.3001 12.0943L11.3433 12.1289L11.968 11.348ZM11.968 9.472L11.2609 8.76489L11.2609 8.7649L11.968 9.472ZM18.576 10.332C18.4884 10.332 18.385 10.3125 18.2828 10.2614C18.1825 10.2113 18.1151 10.1466 18.0751 10.0967L19.6369 8.8473C19.3871 8.53509 19.0145 8.332 18.576 8.332V10.332ZM18.1489 10.1791C18.1122 10.1424 18.0642 10.0827 18.0262 9.99713C17.9871 9.90927 17.968 9.81504 17.968 9.724H19.968C19.968 9.32976 19.7985 9.00025 19.5631 8.7649L18.1489 10.1791ZM17.968 9.724V15.912H19.968V9.724H17.968ZM17.968 15.912C17.968 16.3343 17.8845 16.7277 17.7182 17.1019L19.5458 17.9141C19.8275 17.2803 19.968 16.6097 19.968 15.912H17.968ZM17.7059 17.1307C17.5493 17.5152 17.3331 17.8407 17.0569 18.1169L18.4711 19.5311C18.9416 19.0606 19.3041 18.5088 19.5581 17.8853L17.7059 17.1307ZM17.0753 18.099C16.7904 18.3696 16.449 18.5972 16.0419 18.7782L16.8541 20.6058C17.455 20.3388 17.991 19.9877 18.4528 19.549L17.0753 18.099ZM16.0584 18.771C15.7039 18.921 15.3146 19 14.88 19V21C15.5654 21 16.2214 20.8737 16.8376 20.613L16.0584 18.771ZM14.88 19H8.636V21H14.88V19ZM8.636 19C8.20153 19 7.798 18.921 7.4173 18.7659L6.6627 20.6181C7.29 20.8737 7.95047 21 8.636 21V19ZM7.45906 18.784C7.0692 18.6041 6.7318 18.3755 6.44075 18.099L5.06325 19.549C5.51886 19.9818 6.04013 20.3319 6.62094 20.6L7.45906 18.784ZM6.45911 18.1169C6.17641 17.8342 5.94622 17.4988 5.76981 17.1019L3.94219 17.9141C4.21378 18.5252 4.58093 19.0671 5.04489 19.5311L6.45911 18.1169ZM5.78209 17.1307C5.62699 16.75 5.548 16.3465 5.548 15.912H3.548C3.548 16.5975 3.67434 17.258 3.92991 17.8853L5.78209 17.1307ZM5.548 15.912V4.88H3.548V15.912H5.548ZM5.548 4.88C5.548 4.44535 5.62701 4.05609 5.77697 3.70164L3.93503 2.92236C3.67433 3.53858 3.548 4.19465 3.548 4.88H5.548ZM5.76981 3.71814C5.94622 3.32122 6.17641 2.98581 6.45911 2.70311L5.04489 1.28889C4.58093 1.75286 4.21378 2.29478 3.94219 2.90586L5.76981 3.71814ZM6.45911 2.70311C6.74155 2.42066 7.06314 2.20402 7.42964 2.04897L6.65036 0.207032C6.04619 0.462641 5.50911 0.824671 5.04489 1.28889L6.45911 2.70311ZM7.44614 2.04181C7.82028 1.87553 8.21371 1.792 8.636 1.792V-0.208001C7.93829 -0.208001 7.26773 -0.0675299 6.63386 0.214188L7.44614 2.04181ZM8.636 1.792H14.88V-0.208001H8.636V1.792ZM14.88 1.792C15.3024 1.792 15.6813 1.87549 16.0289 2.03596L16.8671 0.22004C16.2441 -0.0674877 15.5776 -0.208001 14.88 -0.208001V1.792ZM16.0707 2.05409C16.4509 2.20898 16.7596 2.42011 17.011 2.68475L18.461 1.30725C18.0031 0.825222 17.4531 0.45768 16.8253 0.201907L16.0707 2.05409ZM17.0473 2.721C17.3187 2.97891 17.5437 3.29755 17.7182 3.69014L19.5458 2.87786C19.2723 2.26245 18.8999 1.72242 18.4248 1.271L17.0473 2.721ZM17.724 3.70306C17.8845 4.05075 17.968 4.42964 17.968 4.852H19.968C19.968 4.15436 19.8275 3.48792 19.54 2.86494L17.724 3.70306ZM17.968 4.852V6.168H19.968V4.852H17.968ZM17.968 6.168C17.968 6.14452 17.9745 5.94324 18.1629 5.75489C18.3512 5.56655 18.5525 5.56 18.576 5.56V7.56C18.8608 7.56 19.2581 7.48812 19.5771 7.16911C19.8961 6.85009 19.968 6.45281 19.968 6.168H17.968ZM18.576 5.56H17.232V7.56H18.576V5.56ZM17.232 5.56C17.2555 5.56 17.4568 5.56655 17.6451 5.75489C17.8335 5.94324 17.84 6.14452 17.84 6.168H15.84C15.84 6.45281 15.9119 6.85009 16.2309 7.16911C16.5499 7.48812 16.9472 7.56 17.232 7.56V5.56ZM17.84 6.168V4.852H15.84V6.168H17.84ZM17.8394 4.81754C17.8123 4.03033 17.5166 3.33041 16.9591 2.77289L15.5449 4.18711C15.734 4.37626 15.8304 4.591 15.8406 4.88646L17.8394 4.81754ZM16.9591 2.77289C16.393 2.20677 15.679 1.92 14.88 1.92V3.92C15.1636 3.92 15.3643 4.00656 15.5449 4.18711L16.9591 2.77289ZM14.88 1.92H8.636V3.92H14.88V1.92ZM8.636 1.92C7.82238 1.92 7.10337 2.22642 6.52889 2.80089L7.94311 4.21511C8.15263 4.00558 8.36695 3.92 8.636 3.92V1.92ZM6.52889 2.80089C5.96278 3.36701 5.676 4.08097 5.676 4.88H7.676C7.676 4.59637 7.76256 4.39565 7.94311 4.2151L6.52889 2.80089ZM5.676 4.88V15.912H7.676V4.88H5.676ZM5.676 15.912C5.676 16.7101 5.96144 17.4237 6.51186 18.0017L7.96014 16.6223C7.76389 16.4163 7.676 16.1966 7.676 15.912H5.676ZM6.54635 18.0361C7.12429 18.5866 7.83789 18.872 8.636 18.872V16.872C8.35144 16.872 8.13171 16.7841 7.92566 16.5879L6.54635 18.0361ZM8.636 18.872H14.88V16.872H8.636V18.872ZM14.88 18.872C15.679 18.872 16.393 18.5852 16.9591 18.0191L15.5449 16.6049C15.3643 16.7854 15.1636 16.872 14.88 16.872V18.872ZM16.9591 18.0191C17.5336 17.4446 17.84 16.7256 17.84 15.912H15.84C15.84 16.181 15.7544 16.3954 15.5449 16.6049L16.9591 18.0191ZM17.84 15.912V11.46H15.84V15.912H17.84ZM16.84 10.46H12.248V12.46H16.84V10.46ZM12.248 10.46C12.4389 10.46 12.5592 10.5404 12.5927 10.5671L11.3433 12.1289C11.5634 12.305 11.8704 12.46 12.248 12.46V10.46ZM12.6751 10.6409C12.7286 10.6944 12.7783 10.7652 12.8125 10.8506C12.8462 10.9348 12.856 11.0113 12.856 11.068H10.856C10.856 11.4274 10.9864 11.7806 11.2609 12.0551L12.6751 10.6409ZM12.856 11.068V9.724H10.856V11.068H12.856ZM12.856 9.724C12.856 9.81504 12.8369 9.90927 12.7978 9.99714C12.7598 10.0827 12.7118 10.1424 12.6751 10.1791L11.2609 8.7649C11.0255 9.00025 10.856 9.32975 10.856 9.724H12.856ZM12.6751 10.1791C12.6594 10.1948 12.5134 10.332 12.248 10.332V8.332C11.7959 8.332 11.4632 8.56256 11.2609 8.76489L12.6751 10.1791ZM12.248 10.332H18.576V8.332H12.248V10.332ZM26.9281 17.872H25.9281V18.872H26.9281V17.872ZM38.1561 18.012L37.3752 18.6367L37.4098 18.6799L37.449 18.7191L38.1561 18.012ZM24.9121 19.888L24.205 20.5951L24.2442 20.6343L24.2874 20.6689L24.9121 19.888ZM24.9121 0.903999L24.2874 0.123131L24.2441 0.15773L24.205 0.196893L24.9121 0.903999ZM25.1921 1.792H26.5361V-0.208001H25.1921V1.792ZM26.5361 1.792C26.5126 1.792 26.3113 1.78545 26.123 1.59711C25.9346 1.40876 25.9281 1.20748 25.9281 1.184H27.9281C27.9281 0.899187 27.8562 0.501905 27.5372 0.182892C27.2182 -0.136121 26.8209 -0.208001 26.5361 -0.208001V1.792ZM25.9281 1.184V17.872H27.9281V1.184H25.9281ZM26.9281 18.872H37.8761V16.872H26.9281V18.872ZM37.8761 18.872C37.7885 18.872 37.6851 18.8525 37.5829 18.8014C37.4826 18.7513 37.4152 18.6866 37.3752 18.6367L38.937 17.3873C38.6872 17.0751 38.3146 16.872 37.8761 16.872V18.872ZM37.449 18.7191C37.4123 18.6824 37.3643 18.6227 37.3263 18.5371C37.2872 18.4493 37.2681 18.355 37.2681 18.264H39.2681C39.2681 17.8698 39.0986 17.5402 38.8632 17.3049L37.449 18.7191ZM37.2681 18.264V19.608H39.2681V18.264H37.2681ZM37.2681 19.608C37.2681 19.5845 37.2746 19.3832 37.463 19.1949C37.6513 19.0065 37.8526 19 37.8761 19V21C38.1609 21 38.5582 20.9281 38.8772 20.6091C39.1962 20.2901 39.2681 19.8928 39.2681 19.608H37.2681ZM37.8761 19H25.1921V21H37.8761V19ZM25.1921 19C25.383 19 25.5033 19.0804 25.5368 19.1071L24.2874 20.6689C24.5075 20.845 24.8145 21 25.1921 21V19ZM25.6192 19.1809C25.6727 19.2344 25.7224 19.3052 25.7566 19.3906C25.7903 19.4748 25.8001 19.5513 25.8001 19.608H23.8001C23.8001 19.9674 23.9305 20.3206 24.205 20.5951L25.6192 19.1809ZM25.8001 19.608V1.184H23.8001V19.608H25.8001ZM25.8001 1.184C25.8001 1.24072 25.7903 1.31718 25.7566 1.40139C25.7224 1.48677 25.6727 1.5576 25.6192 1.6111L24.205 0.196893C23.9305 0.471354 23.8001 0.824636 23.8001 1.184H25.8001ZM25.5368 1.68487C25.5033 1.71165 25.383 1.792 25.1921 1.792V-0.208001C24.8145 -0.208001 24.5075 -0.0529822 24.2874 0.123131L25.5368 1.68487ZM53.7035 0.903999L53.0788 1.68487L53.1127 1.71198L53.1488 1.73605L53.7035 0.903999ZM53.9275 1.156L54.8562 0.785068L54.856 0.784607L53.9275 1.156ZM57.8195 10.9L56.8909 11.2709L56.8911 11.2714L57.8195 10.9ZM57.9035 11.264L56.9113 11.388L56.9187 11.448L56.9334 11.5065L57.9035 11.264ZM55.8595 14.428H56.8595V13.428H55.8595V14.428ZM45.6955 14.428V13.428H44.6955V14.428H45.6955ZM43.5955 11.264L42.6254 11.0215L42.6107 11.08L42.6033 11.14L43.5955 11.264ZM43.7075 10.9L44.636 11.2714L44.6362 11.2709L43.7075 10.9ZM47.5995 1.156L46.6711 0.784607L46.6709 0.785068L47.5995 1.156ZM55.8595 12.328V13.328H56.8595V12.328H55.8595ZM55.8595 11.656H56.8595V11.4631L56.7878 11.2841L55.8595 11.656ZM52.3595 2.92L53.2878 2.5481L53.0362 1.92H52.3595V2.92ZM49.1955 2.92V1.92H48.5189L48.2673 2.5481L49.1955 2.92ZM45.6955 11.656L44.7673 11.2841L44.6955 11.4631V11.656H45.6955ZM45.6955 12.328H44.6955V13.328H45.6955V12.328ZM53.3955 1.792C53.338 1.792 53.2758 1.78197 53.2148 1.75979C53.1546 1.73791 53.1092 1.70918 53.0788 1.68487L54.3282 0.123131C54.0704 -0.0831599 53.7505 -0.208001 53.3955 -0.208001V1.792ZM53.1488 1.73605C53.1485 1.73586 53.0585 1.67596 52.9991 1.52739L54.856 0.784607C54.7219 0.449369 54.4825 0.221471 54.2582 0.0719486L53.1488 1.73605ZM52.9989 1.52693L56.8909 11.2709L58.7482 10.5291L54.8562 0.785068L52.9989 1.52693ZM56.8911 11.2714C56.8868 11.2608 56.8891 11.2639 56.8941 11.2859C56.8991 11.3072 56.9053 11.3405 56.9113 11.388L58.8958 11.14C58.8712 10.9434 58.8286 10.7301 58.748 10.5286L56.8911 11.2714ZM56.9334 11.5065C56.9577 11.6038 56.9595 11.6498 56.9595 11.656H58.9595C58.9595 11.4382 58.924 11.2228 58.8737 11.0215L56.9334 11.5065ZM56.9595 11.656V19.608H58.9595V11.656H56.9595ZM56.9595 19.608C56.9595 19.5845 56.9661 19.3832 57.1544 19.1949C57.3428 19.0065 57.5441 19 57.5675 19V21C57.8523 21 58.2496 20.9281 58.5686 20.6091C58.8877 20.2901 58.9595 19.8928 58.9595 19.608H56.9595ZM57.5675 19H56.2515V21H57.5675V19ZM56.2515 19C56.275 19 56.4763 19.0065 56.6646 19.1949C56.853 19.3832 56.8595 19.5845 56.8595 19.608H54.8595C54.8595 19.8928 54.9314 20.2901 55.2504 20.6091C55.5694 20.9281 55.9667 21 56.2515 21V19ZM56.8595 19.608V14.428H54.8595V19.608H56.8595ZM55.8595 13.428H45.6955V15.428H55.8595V13.428ZM44.6955 14.428V19.608H46.6955V14.428H44.6955ZM44.6955 19.608C44.6955 19.5845 44.7021 19.3832 44.8904 19.1949C45.0788 19.0065 45.2801 19 45.3035 19V21C45.5883 21 45.9856 20.9281 46.3046 20.6091C46.6237 20.2901 46.6955 19.8928 46.6955 19.608H44.6955ZM45.3035 19H43.9595V21H45.3035V19ZM43.9595 19C43.983 19 44.1843 19.0065 44.3726 19.1949C44.561 19.3832 44.5675 19.5845 44.5675 19.608H42.5675C42.5675 19.8928 42.6394 20.2901 42.9584 20.6091C43.2774 20.9281 43.6747 21 43.9595 21V19ZM44.5675 19.608V11.656H42.5675V19.608H44.5675ZM44.5675 11.656C44.5675 11.5968 44.5727 11.5092 44.5878 11.388L42.6033 11.14C42.5811 11.3175 42.5675 11.4912 42.5675 11.656H44.5675ZM44.5657 11.5065C44.5971 11.3806 44.6218 11.3069 44.636 11.2714L42.7791 10.5286C42.7186 10.6797 42.6686 10.8487 42.6254 11.0215L44.5657 11.5065ZM44.6362 11.2709L48.5282 1.52693L46.6709 0.785068L42.7789 10.5291L44.6362 11.2709ZM48.528 1.52739C48.4686 1.67596 48.3785 1.73586 48.3782 1.73605L47.2688 0.0719492C47.0445 0.221472 46.8052 0.44937 46.6711 0.784607L48.528 1.52739ZM48.3782 1.73605C48.3952 1.72476 48.305 1.792 48.1315 1.792V-0.208001C47.7714 -0.208001 47.4759 -0.0660997 47.2688 0.0719492L48.3782 1.73605ZM48.1315 1.792H53.3955V-0.208001H48.1315V1.792ZM56.8595 12.328V11.656H54.8595V12.328H56.8595ZM56.7878 11.2841L53.2878 2.5481L51.4313 3.2919L54.9313 12.0279L56.7878 11.2841ZM52.3595 1.92H49.1955V3.92H52.3595V1.92ZM48.2673 2.5481L44.7673 11.2841L46.6238 12.0279L50.1238 3.2919L48.2673 2.5481ZM44.6955 11.656V12.328H46.6955V11.656H44.6955ZM45.6955 13.328H55.8595V11.328H45.6955V13.328ZM75.383 11.572H76.383V11.1011L76.02 10.8012L75.383 11.572ZM65.219 3.172L65.856 2.40117L64.219 1.04824V3.172H65.219ZM63.203 19.888L62.4959 20.5951L62.535 20.6343L62.5783 20.6689L63.203 19.888ZM63.203 0.903999L62.5783 0.123131L62.535 0.15773L62.4959 0.196893L63.203 0.903999ZM66.059 1.044L66.6957 0.27293L66.6922 0.270041L66.059 1.044ZM75.383 8.744L74.7462 9.51506L76.383 10.8667V8.744H75.383ZM76.383 19.608V11.572H74.383V19.608H76.383ZM76.02 10.8012L65.856 2.40117L64.5819 3.94283L74.7459 12.3428L76.02 10.8012ZM64.219 3.172V19.608H66.219V3.172H64.219ZM64.219 19.608C64.219 19.5845 64.2255 19.3832 64.4139 19.1949C64.6022 19.0065 64.8035 19 64.827 19V21C65.1118 21 65.5091 20.9281 65.8281 20.6091C66.1471 20.2901 66.219 19.8928 66.219 19.608H64.219ZM64.827 19H63.483V21H64.827V19ZM63.483 19C63.6739 19 63.7942 19.0804 63.8277 19.1071L62.5783 20.6689C62.7984 20.845 63.1054 21 63.483 21V19ZM63.9101 19.1809C63.9636 19.2344 64.0133 19.3052 64.0474 19.3906C64.0811 19.4748 64.091 19.5513 64.091 19.608H62.091C62.091 19.9674 62.2214 20.3206 62.4959 20.5951L63.9101 19.1809ZM64.091 19.608V1.184H62.091V19.608H64.091ZM64.091 1.184C64.091 1.24072 64.0811 1.31718 64.0474 1.40139C64.0133 1.48677 63.9636 1.5576 63.9101 1.6111L62.4959 0.196893C62.2214 0.471354 62.091 0.824636 62.091 1.184H64.091ZM63.8277 1.68487C63.7942 1.71165 63.6739 1.792 63.483 1.792V-0.208001C63.1054 -0.208001 62.7984 -0.0529824 62.5783 0.123131L63.8277 1.68487ZM63.483 1.792H65.359V-0.208001H63.483V1.792ZM65.359 1.792C65.3804 1.792 65.389 1.79507 65.3912 1.79589C65.3937 1.79678 65.4049 1.80089 65.4257 1.81796L66.6922 0.270041C66.3112 -0.0417153 65.8549 -0.208001 65.359 -0.208001V1.792ZM65.4222 1.81506L74.7462 9.51506L76.0197 7.97294L66.6957 0.272938L65.4222 1.81506ZM76.383 8.744V1.184H74.383V8.744H76.383ZM76.383 1.184C76.383 1.20748 76.3764 1.40876 76.1881 1.59711C75.9997 1.78545 75.7984 1.792 75.775 1.792V-0.208001C75.4902 -0.208001 75.0929 -0.136121 74.7739 0.182892C74.4548 0.501905 74.383 0.899187 74.383 1.184H76.383ZM75.775 1.792H77.119V-0.208001H75.775V1.792ZM77.119 1.792C77.0955 1.792 76.8942 1.78545 76.7059 1.59711C76.5175 1.40876 76.511 1.20748 76.511 1.184H78.511C78.511 0.899187 78.4391 0.501905 78.1201 0.182892C77.8011 -0.136121 77.4038 -0.208001 77.119 -0.208001V1.792ZM76.511 1.184V19.608H78.511V1.184H76.511ZM76.511 19.608C76.511 19.5845 76.5175 19.3832 76.7059 19.1949C76.8942 19.0065 77.0955 19 77.119 19V21C77.4038 21 77.8011 20.9281 78.1201 20.6091C78.4391 20.2901 78.511 19.8928 78.511 19.608H76.511ZM77.119 19H75.775V21H77.119V19ZM75.775 19C75.7984 19 75.9997 19.0065 76.1881 19.1949C76.3764 19.3832 76.383 19.5845 76.383 19.608H74.383C74.383 19.8928 74.4548 20.2901 74.7739 20.6091C75.0929 20.9281 75.4902 21 75.775 21V19ZM94.9064 4.852H95.9064V4.83476L95.9058 4.81754L94.9064 4.852ZM94.3184 3.48L93.6113 4.18711L93.6113 4.18711L94.3184 3.48ZM85.3024 3.508L84.5953 2.80089L84.5953 2.80089L85.3024 3.508ZM85.3024 17.312L84.5783 18.0017L84.5951 18.0193L84.6128 18.0361L85.3024 17.312ZM94.3184 17.34L95.0072 18.065L95.0164 18.0562L95.0255 18.0471L94.3184 17.34ZM94.9064 15.968L95.9058 16.0025L95.9064 15.9852V15.968H94.9064ZM95.0184 14.372L95.7255 15.0791L95.7647 15.0399L95.7993 14.9967L95.0184 14.372ZM96.9224 14.372L96.1415 14.9967L96.1761 15.0399L96.2153 15.0791L96.9224 14.372ZM96.6984 17.536L97.6064 17.9551L97.6064 17.9551L96.6984 17.536ZM95.8024 18.824L96.5095 19.5311L96.5095 19.5311L95.8024 18.824ZM94.5144 19.692L94.904 20.613L94.9123 20.6095L94.9205 20.6058L94.5144 19.692ZM85.1064 19.692L84.6873 20.6L84.708 20.6095L84.7291 20.6181L85.1064 19.692ZM83.8184 18.824L83.0934 19.5127L83.1111 19.5313L83.1297 19.549L83.8184 18.824ZM82.9504 17.508L82.0243 17.8853L82.0302 17.8998L82.0366 17.9141L82.9504 17.508ZM82.9504 3.312L82.0366 2.90586L82.0329 2.91408L82.0294 2.92236L82.9504 3.312ZM83.8184 1.996L83.1113 1.28889L83.1022 1.29796L83.0934 1.30725L83.8184 1.996ZM85.1064 1.128L85.496 2.04897L85.5043 2.04546L85.5125 2.04181L85.1064 1.128ZM94.5144 1.128L94.0953 2.03596L94.116 2.0455L94.1371 2.05409L94.5144 1.128ZM95.8024 1.996L95.0774 2.68475L95.0951 2.70334L95.1137 2.721L95.8024 1.996ZM96.6984 3.284L95.7846 3.69014L95.7875 3.69662L95.7904 3.70306L96.6984 3.284ZM96.0344 6.168C96.0344 6.14452 96.041 5.94324 96.2293 5.75489C96.4176 5.56655 96.6189 5.56 96.6424 5.56V7.56C96.9272 7.56 97.3245 7.48812 97.6435 7.16911C97.9625 6.85009 98.0344 6.45281 98.0344 6.168H96.0344ZM96.6424 5.56H95.2984V7.56H96.6424V5.56ZM95.2984 5.56C95.3219 5.56 95.5232 5.56655 95.7115 5.75489C95.8999 5.94324 95.9064 6.14452 95.9064 6.168H93.9064C93.9064 6.45281 93.9783 6.85009 94.2973 7.16911C94.6163 7.48812 95.0136 7.56 95.2984 7.56V5.56ZM95.9064 6.168V4.852H93.9064V6.168H95.9064ZM95.9058 4.81754C95.8787 4.03033 95.583 3.33041 95.0255 2.77289L93.6113 4.18711C93.8005 4.37626 93.8968 4.591 93.907 4.88646L95.9058 4.81754ZM95.0255 2.77289C94.4594 2.20677 93.7454 1.92 92.9464 1.92V3.92C93.23 3.92 93.4308 4.00656 93.6113 4.18711L95.0255 2.77289ZM92.9464 1.92H86.7024V3.92H92.9464V1.92ZM86.7024 1.92C85.8888 1.92 85.1698 2.22642 84.5953 2.80089L86.0095 4.21511C86.219 4.00558 86.4334 3.92 86.7024 3.92V1.92ZM84.5953 2.80089C84.0292 3.36701 83.7424 4.08097 83.7424 4.88H85.7424C85.7424 4.59637 85.829 4.39565 86.0095 4.2151L84.5953 2.80089ZM83.7424 4.88V15.912H85.7424V4.88H83.7424ZM83.7424 15.912C83.7424 16.7101 84.0278 17.4237 84.5783 18.0017L86.0265 16.6223C85.8303 16.4163 85.7424 16.1966 85.7424 15.912H83.7424ZM84.6128 18.0361C85.1907 18.5866 85.9043 18.872 86.7024 18.872V16.872C86.4178 16.872 86.1981 16.7841 85.9921 16.5879L84.6128 18.0361ZM86.7024 18.872H92.9464V16.872H86.7024V18.872ZM92.9464 18.872C93.7296 18.872 94.4377 18.606 95.0072 18.065L93.6297 16.615C93.4524 16.7834 93.2459 16.872 92.9464 16.872V18.872ZM95.0255 18.0471C95.583 17.4896 95.8787 16.7897 95.9058 16.0025L93.907 15.9335C93.8968 16.229 93.8005 16.4437 93.6113 16.6329L95.0255 18.0471ZM95.9064 15.968V14.624H93.9064V15.968H95.9064ZM95.9064 14.624C95.9064 14.715 95.8873 14.8093 95.8482 14.8971C95.8102 14.9827 95.7622 15.0424 95.7255 15.0791L94.3113 13.6649C94.0759 13.9002 93.9064 14.2298 93.9064 14.624H95.9064ZM95.7993 14.9967C95.7593 15.0466 95.6919 15.1113 95.5916 15.1614C95.4894 15.2125 95.386 15.232 95.2984 15.232V13.232C94.8599 13.232 94.4873 13.4351 94.2375 13.7473L95.7993 14.9967ZM95.2984 15.232H96.6424V13.232H95.2984V15.232ZM96.6424 15.232C96.5548 15.232 96.4514 15.2125 96.3492 15.1614C96.2489 15.1113 96.1815 15.0466 96.1415 14.9967L97.7033 13.7473C97.4535 13.4351 97.0809 13.232 96.6424 13.232V15.232ZM96.2153 15.0791C96.1786 15.0424 96.1306 14.9827 96.0926 14.8971C96.0535 14.8093 96.0344 14.715 96.0344 14.624H98.0344C98.0344 14.2298 97.8649 13.9003 97.6295 13.6649L96.2153 15.0791ZM96.0344 14.624V15.968H98.0344V14.624H96.0344ZM96.0344 15.968C96.0344 16.3904 95.9509 16.7693 95.7904 17.1169L97.6064 17.9551C97.8939 17.3321 98.0344 16.6656 98.0344 15.968H96.0344ZM95.7904 17.1169C95.6153 17.4965 95.3842 17.828 95.0953 18.1169L96.5095 19.5311C96.9673 19.0733 97.3336 18.5461 97.6064 17.9551L95.7904 17.1169ZM95.0953 18.1169C94.8357 18.3765 94.5113 18.5991 94.1083 18.7782L94.9205 20.6058C95.5255 20.3369 96.0598 19.9808 96.5095 19.5311L95.0953 18.1169ZM94.1248 18.771C93.7703 18.921 93.3811 19 92.9464 19V21C93.6318 21 94.2878 20.8737 94.904 20.613L94.1248 18.771ZM92.9464 19H86.7024V21H92.9464V19ZM86.7024 19C86.2679 19 85.8644 18.921 85.4837 18.7659L84.7291 20.6181C85.3564 20.8737 86.0169 21 86.7024 21V19ZM85.5255 18.784C85.1356 18.6041 84.7982 18.3755 84.5072 18.099L83.1297 19.549C83.5853 19.9818 84.1065 20.3319 84.6873 20.6L85.5255 18.784ZM84.5434 18.1353C84.2728 17.8504 84.0452 17.509 83.8642 17.1019L82.0366 17.9141C82.3036 18.515 82.6547 19.051 83.0934 19.5127L84.5434 18.1353ZM83.8765 17.1307C83.7214 16.75 83.6424 16.3465 83.6424 15.912H81.6424C81.6424 16.5975 81.7687 17.258 82.0243 17.8853L83.8765 17.1307ZM83.6424 15.912V4.88H81.6424V15.912H83.6424ZM83.6424 4.88C83.6424 4.44535 83.7214 4.05609 83.8714 3.70164L82.0294 2.92236C81.7687 3.53858 81.6424 4.19465 81.6424 4.88H83.6424ZM83.8642 3.71814C84.0452 3.31098 84.2728 2.96964 84.5434 2.68475L83.0934 1.30725C82.6547 1.76903 82.3036 2.30501 82.0366 2.90586L83.8642 3.71814ZM84.5255 2.70311C84.808 2.42066 85.1295 2.20402 85.496 2.04897L84.7168 0.207032C84.1126 0.462641 83.5755 0.824671 83.1113 1.28889L84.5255 2.70311ZM85.5125 2.04181C85.8867 1.87553 86.2801 1.792 86.7024 1.792V-0.208001C86.0047 -0.208001 85.3341 -0.0675299 84.7003 0.214188L85.5125 2.04181ZM86.7024 1.792H92.9464V-0.208001H86.7024V1.792ZM92.9464 1.792C93.3688 1.792 93.7477 1.87549 94.0953 2.03596L94.9335 0.22004C94.3105 -0.0674877 93.644 -0.208001 92.9464 -0.208001V1.792ZM94.1371 2.05409C94.5173 2.20898 94.826 2.42011 95.0774 2.68475L96.5274 1.30725C96.0695 0.825222 95.5195 0.45768 94.8917 0.201907L94.1371 2.05409ZM95.1137 2.721C95.3851 2.97891 95.6101 3.29755 95.7846 3.69014L97.6122 2.87786C97.3387 2.26245 96.9663 1.72242 96.4912 1.271L95.1137 2.721ZM95.7904 3.70306C95.9509 4.05075 96.0344 4.42964 96.0344 4.852H98.0344C98.0344 4.15436 97.8939 3.48792 97.6064 2.86494L95.7904 3.70306ZM96.0344 4.852V6.168H98.0344V4.852H96.0344ZM104.686 2.92V1.92H103.686V2.92H104.686ZM104.686 9.332H103.686V10.332H104.686V9.332ZM114.766 9.472L113.985 10.0967L114.054 10.1835L114.141 10.2529L114.766 9.472ZM114.766 11.348L114.141 10.5671L114.098 10.6017L114.059 10.6409L114.766 11.348ZM104.686 11.46V10.46H103.686V11.46H104.686ZM104.686 17.872H103.686V18.872H104.686V17.872ZM116.306 18.012L115.525 18.6367L115.56 18.6799L115.599 18.7191L116.306 18.012ZM103.586 19.608V1.184H101.586V19.608H103.586ZM103.586 1.184C103.586 1.20748 103.579 1.40876 103.391 1.59711C103.203 1.78545 103.001 1.792 102.978 1.792V-0.208001C102.693 -0.208001 102.296 -0.136121 101.977 0.182892C101.658 0.501905 101.586 0.899187 101.586 1.184H103.586ZM102.978 1.792H116.026V-0.208001H102.978V1.792ZM116.026 1.792C116.002 1.792 115.801 1.78545 115.613 1.59711C115.424 1.40876 115.418 1.20748 115.418 1.184H117.418C117.418 0.899187 117.346 0.501905 117.027 0.182892C116.708 -0.136121 116.311 -0.208001 116.026 -0.208001V1.792ZM115.418 1.184V2.528H117.418V1.184H115.418ZM115.418 2.528C115.418 2.50452 115.424 2.30324 115.613 2.11489C115.801 1.92655 116.002 1.92 116.026 1.92V3.92C116.311 3.92 116.708 3.84812 117.027 3.52911C117.346 3.21009 117.418 2.81281 117.418 2.528H115.418ZM116.026 1.92H104.686V3.92H116.026V1.92ZM103.686 2.92V9.332H105.686V2.92H103.686ZM104.686 10.332H114.514V8.332H104.686V10.332ZM114.514 10.332C114.385 10.332 114.263 10.2978 114.161 10.2412C114.065 10.188 114.01 10.1276 113.985 10.0967L115.547 8.8473C115.34 8.58914 114.993 8.332 114.514 8.332V10.332ZM114.141 10.2529C114.11 10.2281 114.05 10.1724 113.997 10.0766C113.94 9.97466 113.906 9.85244 113.906 9.724H115.906C115.906 9.24492 115.649 8.89766 115.391 8.69113L114.141 10.2529ZM113.906 9.724V11.068H115.906V9.724H113.906ZM113.906 11.068C113.906 10.9804 113.925 10.877 113.976 10.7748C114.027 10.6745 114.091 10.6071 114.141 10.5671L115.391 12.1289C115.703 11.8791 115.906 11.5065 115.906 11.068H113.906ZM114.059 10.6409C114.095 10.6042 114.155 10.5562 114.241 10.5182C114.329 10.4791 114.423 10.46 114.514 10.46V12.46C114.908 12.46 115.238 12.2905 115.473 12.0551L114.059 10.6409ZM114.514 10.46H104.686V12.46H114.514V10.46ZM103.686 11.46V17.872H105.686V11.46H103.686ZM104.686 18.872H116.026V16.872H104.686V18.872ZM116.026 18.872C115.938 18.872 115.835 18.8525 115.733 18.8014C115.632 18.7513 115.565 18.6866 115.525 18.6367L117.087 17.3873C116.837 17.0751 116.464 16.872 116.026 16.872V18.872ZM115.599 18.7191C115.562 18.6824 115.514 18.6227 115.476 18.5371C115.437 18.4493 115.418 18.355 115.418 18.264H117.418C117.418 17.8698 117.248 17.5402 117.013 17.3049L115.599 18.7191ZM115.418 18.264V19.608H117.418V18.264H115.418ZM115.418 19.608C115.418 19.5845 115.424 19.3832 115.613 19.1949C115.801 19.0065 116.002 19 116.026 19V21C116.311 21 116.708 20.9281 117.027 20.6091C117.346 20.2901 117.418 19.8928 117.418 19.608H115.418ZM116.026 19H102.978V21H116.026V19ZM102.978 19C103.001 19 103.203 19.0065 103.391 19.1949C103.579 19.3832 103.586 19.5845 103.586 19.608H101.586C101.586 19.8928 101.658 20.2901 101.977 20.6091C102.296 20.9281 102.693 21 102.978 21V19Z" fill="black" mask="url(#path-1-outside-1_255_9737)"/>
<path d="M18.856 9.472L18.0751 10.0967L18.1097 10.1399L18.1489 10.1791L18.856 9.472ZM18.632 17.508L17.7182 17.1019L17.7118 17.1162L17.7059 17.1307L18.632 17.508ZM17.764 18.824L18.4528 19.549L18.462 19.5402L18.4711 19.5311L17.764 18.824ZM16.448 19.692L16.8376 20.613L16.8459 20.6095L16.8541 20.6058L16.448 19.692ZM7.04 19.692L6.62094 20.6L6.64162 20.6095L6.6627 20.6181L7.04 19.692ZM5.752 18.824L5.04489 19.5311L5.05396 19.5402L5.06325 19.549L5.752 18.824ZM4.856 17.508L3.92991 17.8853L3.93582 17.8998L3.94219 17.9141L4.856 17.508ZM4.856 3.312L3.94219 2.90586L3.93854 2.91408L3.93503 2.92236L4.856 3.312ZM5.752 1.996L6.45911 2.70311L6.45911 2.70311L5.752 1.996ZM7.04 1.128L7.42964 2.04897L7.43792 2.04546L7.44614 2.04181L7.04 1.128ZM16.448 1.128L16.0289 2.03596L16.0496 2.0455L16.0707 2.05409L16.448 1.128ZM17.736 1.996L17.011 2.68475L17.0287 2.70334L17.0473 2.721L17.736 1.996ZM18.632 3.284L17.7182 3.69014L17.7211 3.69662L17.724 3.70306L18.632 3.284ZM16.84 4.852H17.84V4.83476L17.8394 4.81754L16.84 4.852ZM16.252 3.48L15.5449 4.18711L15.5449 4.18711L16.252 3.48ZM7.236 3.508L6.52889 2.80089L6.52889 2.80089L7.236 3.508ZM7.236 17.312L6.51186 18.0017L6.52868 18.0193L6.54635 18.0361L7.236 17.312ZM16.252 17.312L15.5449 16.6049L15.5449 16.6049L16.252 17.312ZM16.84 11.46H17.84V10.46H16.84V11.46ZM11.968 11.348L11.2609 12.0551L11.3001 12.0943L11.3433 12.1289L11.968 11.348ZM11.968 9.472L11.2609 8.76489L11.2609 8.7649L11.968 9.472ZM18.576 10.332C18.4884 10.332 18.385 10.3125 18.2828 10.2614C18.1825 10.2113 18.1151 10.1466 18.0751 10.0967L19.6369 8.8473C19.3871 8.53509 19.0145 8.332 18.576 8.332V10.332ZM18.1489 10.1791C18.1122 10.1424 18.0642 10.0827 18.0262 9.99713C17.9871 9.90927 17.968 9.81504 17.968 9.724H19.968C19.968 9.32976 19.7985 9.00025 19.5631 8.7649L18.1489 10.1791ZM17.968 9.724V15.912H19.968V9.724H17.968ZM17.968 15.912C17.968 16.3343 17.8845 16.7277 17.7182 17.1019L19.5458 17.9141C19.8275 17.2803 19.968 16.6097 19.968 15.912H17.968ZM17.7059 17.1307C17.5493 17.5152 17.3331 17.8407 17.0569 18.1169L18.4711 19.5311C18.9416 19.0606 19.3041 18.5088 19.5581 17.8853L17.7059 17.1307ZM17.0753 18.099C16.7904 18.3696 16.449 18.5972 16.0419 18.7782L16.8541 20.6058C17.455 20.3388 17.991 19.9877 18.4528 19.549L17.0753 18.099ZM16.0584 18.771C15.7039 18.921 15.3146 19 14.88 19V21C15.5654 21 16.2214 20.8737 16.8376 20.613L16.0584 18.771ZM14.88 19H8.636V21H14.88V19ZM8.636 19C8.20153 19 7.798 18.921 7.4173 18.7659L6.6627 20.6181C7.29 20.8737 7.95047 21 8.636 21V19ZM7.45906 18.784C7.0692 18.6041 6.7318 18.3755 6.44075 18.099L5.06325 19.549C5.51886 19.9818 6.04013 20.3319 6.62094 20.6L7.45906 18.784ZM6.45911 18.1169C6.17641 17.8342 5.94622 17.4988 5.76981 17.1019L3.94219 17.9141C4.21378 18.5252 4.58093 19.0671 5.04489 19.5311L6.45911 18.1169ZM5.78209 17.1307C5.62699 16.75 5.548 16.3465 5.548 15.912H3.548C3.548 16.5975 3.67434 17.258 3.92991 17.8853L5.78209 17.1307ZM5.548 15.912V4.88H3.548V15.912H5.548ZM5.548 4.88C5.548 4.44535 5.62701 4.05609 5.77697 3.70164L3.93503 2.92236C3.67433 3.53858 3.548 4.19465 3.548 4.88H5.548ZM5.76981 3.71814C5.94622 3.32122 6.17641 2.98581 6.45911 2.70311L5.04489 1.28889C4.58093 1.75286 4.21378 2.29478 3.94219 2.90586L5.76981 3.71814ZM6.45911 2.70311C6.74155 2.42066 7.06314 2.20402 7.42964 2.04897L6.65036 0.207032C6.04619 0.462641 5.50911 0.824671 5.04489 1.28889L6.45911 2.70311ZM7.44614 2.04181C7.82028 1.87553 8.21371 1.792 8.636 1.792V-0.208001C7.93829 -0.208001 7.26773 -0.0675299 6.63386 0.214188L7.44614 2.04181ZM8.636 1.792H14.88V-0.208001H8.636V1.792ZM14.88 1.792C15.3024 1.792 15.6813 1.87549 16.0289 2.03596L16.8671 0.22004C16.2441 -0.0674877 15.5776 -0.208001 14.88 -0.208001V1.792ZM16.0707 2.05409C16.4509 2.20898 16.7596 2.42011 17.011 2.68475L18.461 1.30725C18.0031 0.825222 17.4531 0.45768 16.8253 0.201907L16.0707 2.05409ZM17.0473 2.721C17.3187 2.97891 17.5437 3.29755 17.7182 3.69014L19.5458 2.87786C19.2723 2.26245 18.8999 1.72242 18.4248 1.271L17.0473 2.721ZM17.724 3.70306C17.8845 4.05075 17.968 4.42964 17.968 4.852H19.968C19.968 4.15436 19.8275 3.48792 19.54 2.86494L17.724 3.70306ZM17.968 4.852V6.168H19.968V4.852H17.968ZM17.968 6.168C17.968 6.14452 17.9745 5.94324 18.1629 5.75489C18.3512 5.56655 18.5525 5.56 18.576 5.56V7.56C18.8608 7.56 19.2581 7.48812 19.5771 7.16911C19.8961 6.85009 19.968 6.45281 19.968 6.168H17.968ZM18.576 5.56H17.232V7.56H18.576V5.56ZM17.232 5.56C17.2555 5.56 17.4568 5.56655 17.6451 5.75489C17.8335 5.94324 17.84 6.14452 17.84 6.168H15.84C15.84 6.45281 15.9119 6.85009 16.2309 7.16911C16.5499 7.48812 16.9472 7.56 17.232 7.56V5.56ZM17.84 6.168V4.852H15.84V6.168H17.84ZM17.8394 4.81754C17.8123 4.03033 17.5166 3.33041 16.9591 2.77289L15.5449 4.18711C15.734 4.37626 15.8304 4.591 15.8406 4.88646L17.8394 4.81754ZM16.9591 2.77289C16.393 2.20677 15.679 1.92 14.88 1.92V3.92C15.1636 3.92 15.3643 4.00656 15.5449 4.18711L16.9591 2.77289ZM14.88 1.92H8.636V3.92H14.88V1.92ZM8.636 1.92C7.82238 1.92 7.10337 2.22642 6.52889 2.80089L7.94311 4.21511C8.15263 4.00558 8.36695 3.92 8.636 3.92V1.92ZM6.52889 2.80089C5.96278 3.36701 5.676 4.08097 5.676 4.88H7.676C7.676 4.59637 7.76256 4.39565 7.94311 4.2151L6.52889 2.80089ZM5.676 4.88V15.912H7.676V4.88H5.676ZM5.676 15.912C5.676 16.7101 5.96144 17.4237 6.51186 18.0017L7.96014 16.6223C7.76389 16.4163 7.676 16.1966 7.676 15.912H5.676ZM6.54635 18.0361C7.12429 18.5866 7.83789 18.872 8.636 18.872V16.872C8.35144 16.872 8.13171 16.7841 7.92566 16.5879L6.54635 18.0361ZM8.636 18.872H14.88V16.872H8.636V18.872ZM14.88 18.872C15.679 18.872 16.393 18.5852 16.9591 18.0191L15.5449 16.6049C15.3643 16.7854 15.1636 16.872 14.88 16.872V18.872ZM16.9591 18.0191C17.5336 17.4446 17.84 16.7256 17.84 15.912H15.84C15.84 16.181 15.7544 16.3954 15.5449 16.6049L16.9591 18.0191ZM17.84 15.912V11.46H15.84V15.912H17.84ZM16.84 10.46H12.248V12.46H16.84V10.46ZM12.248 10.46C12.4389 10.46 12.5592 10.5404 12.5927 10.5671L11.3433 12.1289C11.5634 12.305 11.8704 12.46 12.248 12.46V10.46ZM12.6751 10.6409C12.7286 10.6944 12.7783 10.7652 12.8125 10.8506C12.8462 10.9348 12.856 11.0113 12.856 11.068H10.856C10.856 11.4274 10.9864 11.7806 11.2609 12.0551L12.6751 10.6409ZM12.856 11.068V9.724H10.856V11.068H12.856ZM12.856 9.724C12.856 9.81504 12.8369 9.90927 12.7978 9.99714C12.7598 10.0827 12.7118 10.1424 12.6751 10.1791L11.2609 8.7649C11.0255 9.00025 10.856 9.32975 10.856 9.724H12.856ZM12.6751 10.1791C12.6594 10.1948 12.5134 10.332 12.248 10.332V8.332C11.7959 8.332 11.4632 8.56256 11.2609 8.76489L12.6751 10.1791ZM12.248 10.332H18.576V8.332H12.248V10.332ZM26.9281 17.872H25.9281V18.872H26.9281V17.872ZM38.1561 18.012L37.3752 18.6367L37.4098 18.6799L37.449 18.7191L38.1561 18.012ZM24.9121 19.888L24.205 20.5951L24.2442 20.6343L24.2874 20.6689L24.9121 19.888ZM24.9121 0.903999L24.2874 0.123131L24.2441 0.15773L24.205 0.196893L24.9121 0.903999ZM25.1921 1.792H26.5361V-0.208001H25.1921V1.792ZM26.5361 1.792C26.5126 1.792 26.3113 1.78545 26.123 1.59711C25.9346 1.40876 25.9281 1.20748 25.9281 1.184H27.9281C27.9281 0.899187 27.8562 0.501905 27.5372 0.182892C27.2182 -0.136121 26.8209 -0.208001 26.5361 -0.208001V1.792ZM25.9281 1.184V17.872H27.9281V1.184H25.9281ZM26.9281 18.872H37.8761V16.872H26.9281V18.872ZM37.8761 18.872C37.7885 18.872 37.6851 18.8525 37.5829 18.8014C37.4826 18.7513 37.4152 18.6866 37.3752 18.6367L38.937 17.3873C38.6872 17.0751 38.3146 16.872 37.8761 16.872V18.872ZM37.449 18.7191C37.4123 18.6824 37.3643 18.6227 37.3263 18.5371C37.2872 18.4493 37.2681 18.355 37.2681 18.264H39.2681C39.2681 17.8698 39.0986 17.5402 38.8632 17.3049L37.449 18.7191ZM37.2681 18.264V19.608H39.2681V18.264H37.2681ZM37.2681 19.608C37.2681 19.5845 37.2746 19.3832 37.463 19.1949C37.6513 19.0065 37.8526 19 37.8761 19V21C38.1609 21 38.5582 20.9281 38.8772 20.6091C39.1962 20.2901 39.2681 19.8928 39.2681 19.608H37.2681ZM37.8761 19H25.1921V21H37.8761V19ZM25.1921 19C25.383 19 25.5033 19.0804 25.5368 19.1071L24.2874 20.6689C24.5075 20.845 24.8145 21 25.1921 21V19ZM25.6192 19.1809C25.6727 19.2344 25.7224 19.3052 25.7566 19.3906C25.7903 19.4748 25.8001 19.5513 25.8001 19.608H23.8001C23.8001 19.9674 23.9305 20.3206 24.205 20.5951L25.6192 19.1809ZM25.8001 19.608V1.184H23.8001V19.608H25.8001ZM25.8001 1.184C25.8001 1.24072 25.7903 1.31718 25.7566 1.40139C25.7224 1.48677 25.6727 1.5576 25.6192 1.6111L24.205 0.196893C23.9305 0.471354 23.8001 0.824636 23.8001 1.184H25.8001ZM25.5368 1.68487C25.5033 1.71165 25.383 1.792 25.1921 1.792V-0.208001C24.8145 -0.208001 24.5075 -0.0529822 24.2874 0.123131L25.5368 1.68487ZM53.7035 0.903999L53.0788 1.68487L53.1127 1.71198L53.1488 1.73605L53.7035 0.903999ZM53.9275 1.156L54.8562 0.785068L54.856 0.784607L53.9275 1.156ZM57.8195 10.9L56.8909 11.2709L56.8911 11.2714L57.8195 10.9ZM57.9035 11.264L56.9113 11.388L56.9187 11.448L56.9334 11.5065L57.9035 11.264ZM55.8595 14.428H56.8595V13.428H55.8595V14.428ZM45.6955 14.428V13.428H44.6955V14.428H45.6955ZM43.5955 11.264L42.6254 11.0215L42.6107 11.08L42.6033 11.14L43.5955 11.264ZM43.7075 10.9L44.636 11.2714L44.6362 11.2709L43.7075 10.9ZM47.5995 1.156L46.6711 0.784607L46.6709 0.785068L47.5995 1.156ZM55.8595 12.328V13.328H56.8595V12.328H55.8595ZM55.8595 11.656H56.8595V11.4631L56.7878 11.2841L55.8595 11.656ZM52.3595 2.92L53.2878 2.5481L53.0362 1.92H52.3595V2.92ZM49.1955 2.92V1.92H48.5189L48.2673 2.5481L49.1955 2.92ZM45.6955 11.656L44.7673 11.2841L44.6955 11.4631V11.656H45.6955ZM45.6955 12.328H44.6955V13.328H45.6955V12.328ZM53.3955 1.792C53.338 1.792 53.2758 1.78197 53.2148 1.75979C53.1546 1.73791 53.1092 1.70918 53.0788 1.68487L54.3282 0.123131C54.0704 -0.0831599 53.7505 -0.208001 53.3955 -0.208001V1.792ZM53.1488 1.73605C53.1485 1.73586 53.0585 1.67596 52.9991 1.52739L54.856 0.784607C54.7219 0.449369 54.4825 0.221471 54.2582 0.0719486L53.1488 1.73605ZM52.9989 1.52693L56.8909 11.2709L58.7482 10.5291L54.8562 0.785068L52.9989 1.52693ZM56.8911 11.2714C56.8868 11.2608 56.8891 11.2639 56.8941 11.2859C56.8991 11.3072 56.9053 11.3405 56.9113 11.388L58.8958 11.14C58.8712 10.9434 58.8286 10.7301 58.748 10.5286L56.8911 11.2714ZM56.9334 11.5065C56.9577 11.6038 56.9595 11.6498 56.9595 11.656H58.9595C58.9595 11.4382 58.924 11.2228 58.8737 11.0215L56.9334 11.5065ZM56.9595 11.656V19.608H58.9595V11.656H56.9595ZM56.9595 19.608C56.9595 19.5845 56.9661 19.3832 57.1544 19.1949C57.3428 19.0065 57.5441 19 57.5675 19V21C57.8523 21 58.2496 20.9281 58.5686 20.6091C58.8877 20.2901 58.9595 19.8928 58.9595 19.608H56.9595ZM57.5675 19H56.2515V21H57.5675V19ZM56.2515 19C56.275 19 56.4763 19.0065 56.6646 19.1949C56.853 19.3832 56.8595 19.5845 56.8595 19.608H54.8595C54.8595 19.8928 54.9314 20.2901 55.2504 20.6091C55.5694 20.9281 55.9667 21 56.2515 21V19ZM56.8595 19.608V14.428H54.8595V19.608H56.8595ZM55.8595 13.428H45.6955V15.428H55.8595V13.428ZM44.6955 14.428V19.608H46.6955V14.428H44.6955ZM44.6955 19.608C44.6955 19.5845 44.7021 19.3832 44.8904 19.1949C45.0788 19.0065 45.2801 19 45.3035 19V21C45.5883 21 45.9856 20.9281 46.3046 20.6091C46.6237 20.2901 46.6955 19.8928 46.6955 19.608H44.6955ZM45.3035 19H43.9595V21H45.3035V19ZM43.9595 19C43.983 19 44.1843 19.0065 44.3726 19.1949C44.561 19.3832 44.5675 19.5845 44.5675 19.608H42.5675C42.5675 19.8928 42.6394 20.2901 42.9584 20.6091C43.2774 20.9281 43.6747 21 43.9595 21V19ZM44.5675 19.608V11.656H42.5675V19.608H44.5675ZM44.5675 11.656C44.5675 11.5968 44.5727 11.5092 44.5878 11.388L42.6033 11.14C42.5811 11.3175 42.5675 11.4912 42.5675 11.656H44.5675ZM44.5657 11.5065C44.5971 11.3806 44.6218 11.3069 44.636 11.2714L42.7791 10.5286C42.7186 10.6797 42.6686 10.8487 42.6254 11.0215L44.5657 11.5065ZM44.6362 11.2709L48.5282 1.52693L46.6709 0.785068L42.7789 10.5291L44.6362 11.2709ZM48.528 1.52739C48.4686 1.67596 48.3785 1.73586 48.3782 1.73605L47.2688 0.0719492C47.0445 0.221472 46.8052 0.44937 46.6711 0.784607L48.528 1.52739ZM48.3782 1.73605C48.3952 1.72476 48.305 1.792 48.1315 1.792V-0.208001C47.7714 -0.208001 47.4759 -0.0660997 47.2688 0.0719492L48.3782 1.73605ZM48.1315 1.792H53.3955V-0.208001H48.1315V1.792ZM56.8595 12.328V11.656H54.8595V12.328H56.8595ZM56.7878 11.2841L53.2878 2.5481L51.4313 3.2919L54.9313 12.0279L56.7878 11.2841ZM52.3595 1.92H49.1955V3.92H52.3595V1.92ZM48.2673 2.5481L44.7673 11.2841L46.6238 12.0279L50.1238 3.2919L48.2673 2.5481ZM44.6955 11.656V12.328H46.6955V11.656H44.6955ZM45.6955 13.328H55.8595V11.328H45.6955V13.328ZM75.383 11.572H76.383V11.1011L76.02 10.8012L75.383 11.572ZM65.219 3.172L65.856 2.40117L64.219 1.04824V3.172H65.219ZM63.203 19.888L62.4959 20.5951L62.535 20.6343L62.5783 20.6689L63.203 19.888ZM63.203 0.903999L62.5783 0.123131L62.535 0.15773L62.4959 0.196893L63.203 0.903999ZM66.059 1.044L66.6957 0.27293L66.6922 0.270041L66.059 1.044ZM75.383 8.744L74.7462 9.51506L76.383 10.8667V8.744H75.383ZM76.383 19.608V11.572H74.383V19.608H76.383ZM76.02 10.8012L65.856 2.40117L64.5819 3.94283L74.7459 12.3428L76.02 10.8012ZM64.219 3.172V19.608H66.219V3.172H64.219ZM64.219 19.608C64.219 19.5845 64.2255 19.3832 64.4139 19.1949C64.6022 19.0065 64.8035 19 64.827 19V21C65.1118 21 65.5091 20.9281 65.8281 20.6091C66.1471 20.2901 66.219 19.8928 66.219 19.608H64.219ZM64.827 19H63.483V21H64.827V19ZM63.483 19C63.6739 19 63.7942 19.0804 63.8277 19.1071L62.5783 20.6689C62.7984 20.845 63.1054 21 63.483 21V19ZM63.9101 19.1809C63.9636 19.2344 64.0133 19.3052 64.0474 19.3906C64.0811 19.4748 64.091 19.5513 64.091 19.608H62.091C62.091 19.9674 62.2214 20.3206 62.4959 20.5951L63.9101 19.1809ZM64.091 19.608V1.184H62.091V19.608H64.091ZM64.091 1.184C64.091 1.24072 64.0811 1.31718 64.0474 1.40139C64.0133 1.48677 63.9636 1.5576 63.9101 1.6111L62.4959 0.196893C62.2214 0.471354 62.091 0.824636 62.091 1.184H64.091ZM63.8277 1.68487C63.7942 1.71165 63.6739 1.792 63.483 1.792V-0.208001C63.1054 -0.208001 62.7984 -0.0529824 62.5783 0.123131L63.8277 1.68487ZM63.483 1.792H65.359V-0.208001H63.483V1.792ZM65.359 1.792C65.3804 1.792 65.389 1.79507 65.3912 1.79589C65.3937 1.79678 65.4049 1.80089 65.4257 1.81796L66.6922 0.270041C66.3112 -0.0417153 65.8549 -0.208001 65.359 -0.208001V1.792ZM65.4222 1.81506L74.7462 9.51506L76.0197 7.97294L66.6957 0.272938L65.4222 1.81506ZM76.383 8.744V1.184H74.383V8.744H76.383ZM76.383 1.184C76.383 1.20748 76.3764 1.40876 76.1881 1.59711C75.9997 1.78545 75.7984 1.792 75.775 1.792V-0.208001C75.4902 -0.208001 75.0929 -0.136121 74.7739 0.182892C74.4548 0.501905 74.383 0.899187 74.383 1.184H76.383ZM75.775 1.792H77.119V-0.208001H75.775V1.792ZM77.119 1.792C77.0955 1.792 76.8942 1.78545 76.7059 1.59711C76.5175 1.40876 76.511 1.20748 76.511 1.184H78.511C78.511 0.899187 78.4391 0.501905 78.1201 0.182892C77.8011 -0.136121 77.4038 -0.208001 77.119 -0.208001V1.792ZM76.511 1.184V19.608H78.511V1.184H76.511ZM76.511 19.608C76.511 19.5845 76.5175 19.3832 76.7059 19.1949C76.8942 19.0065 77.0955 19 77.119 19V21C77.4038 21 77.8011 20.9281 78.1201 20.6091C78.4391 20.2901 78.511 19.8928 78.511 19.608H76.511ZM77.119 19H75.775V21H77.119V19ZM75.775 19C75.7984 19 75.9997 19.0065 76.1881 19.1949C76.3764 19.3832 76.383 19.5845 76.383 19.608H74.383C74.383 19.8928 74.4548 20.2901 74.7739 20.6091C75.0929 20.9281 75.4902 21 75.775 21V19ZM94.9064 4.852H95.9064V4.83476L95.9058 4.81754L94.9064 4.852ZM94.3184 3.48L93.6113 4.18711L93.6113 4.18711L94.3184 3.48ZM85.3024 3.508L84.5953 2.80089L84.5953 2.80089L85.3024 3.508ZM85.3024 17.312L84.5783 18.0017L84.5951 18.0193L84.6128 18.0361L85.3024 17.312ZM94.3184 17.34L95.0072 18.065L95.0164 18.0562L95.0255 18.0471L94.3184 17.34ZM94.9064 15.968L95.9058 16.0025L95.9064 15.9852V15.968H94.9064ZM95.0184 14.372L95.7255 15.0791L95.7647 15.0399L95.7993 14.9967L95.0184 14.372ZM96.9224 14.372L96.1415 14.9967L96.1761 15.0399L96.2153 15.0791L96.9224 14.372ZM96.6984 17.536L97.6064 17.9551L97.6064 17.9551L96.6984 17.536ZM95.8024 18.824L96.5095 19.5311L96.5095 19.5311L95.8024 18.824ZM94.5144 19.692L94.904 20.613L94.9123 20.6095L94.9205 20.6058L94.5144 19.692ZM85.1064 19.692L84.6873 20.6L84.708 20.6095L84.7291 20.6181L85.1064 19.692ZM83.8184 18.824L83.0934 19.5127L83.1111 19.5313L83.1297 19.549L83.8184 18.824ZM82.9504 17.508L82.0243 17.8853L82.0302 17.8998L82.0366 17.9141L82.9504 17.508ZM82.9504 3.312L82.0366 2.90586L82.0329 2.91408L82.0294 2.92236L82.9504 3.312ZM83.8184 1.996L83.1113 1.28889L83.1022 1.29796L83.0934 1.30725L83.8184 1.996ZM85.1064 1.128L85.496 2.04897L85.5043 2.04546L85.5125 2.04181L85.1064 1.128ZM94.5144 1.128L94.0953 2.03596L94.116 2.0455L94.1371 2.05409L94.5144 1.128ZM95.8024 1.996L95.0774 2.68475L95.0951 2.70334L95.1137 2.721L95.8024 1.996ZM96.6984 3.284L95.7846 3.69014L95.7875 3.69662L95.7904 3.70306L96.6984 3.284ZM96.0344 6.168C96.0344 6.14452 96.041 5.94324 96.2293 5.75489C96.4176 5.56655 96.6189 5.56 96.6424 5.56V7.56C96.9272 7.56 97.3245 7.48812 97.6435 7.16911C97.9625 6.85009 98.0344 6.45281 98.0344 6.168H96.0344ZM96.6424 5.56H95.2984V7.56H96.6424V5.56ZM95.2984 5.56C95.3219 5.56 95.5232 5.56655 95.7115 5.75489C95.8999 5.94324 95.9064 6.14452 95.9064 6.168H93.9064C93.9064 6.45281 93.9783 6.85009 94.2973 7.16911C94.6163 7.48812 95.0136 7.56 95.2984 7.56V5.56ZM95.9064 6.168V4.852H93.9064V6.168H95.9064ZM95.9058 4.81754C95.8787 4.03033 95.583 3.33041 95.0255 2.77289L93.6113 4.18711C93.8005 4.37626 93.8968 4.591 93.907 4.88646L95.9058 4.81754ZM95.0255 2.77289C94.4594 2.20677 93.7454 1.92 92.9464 1.92V3.92C93.23 3.92 93.4308 4.00656 93.6113 4.18711L95.0255 2.77289ZM92.9464 1.92H86.7024V3.92H92.9464V1.92ZM86.7024 1.92C85.8888 1.92 85.1698 2.22642 84.5953 2.80089L86.0095 4.21511C86.219 4.00558 86.4334 3.92 86.7024 3.92V1.92ZM84.5953 2.80089C84.0292 3.36701 83.7424 4.08097 83.7424 4.88H85.7424C85.7424 4.59637 85.829 4.39565 86.0095 4.2151L84.5953 2.80089ZM83.7424 4.88V15.912H85.7424V4.88H83.7424ZM83.7424 15.912C83.7424 16.7101 84.0278 17.4237 84.5783 18.0017L86.0265 16.6223C85.8303 16.4163 85.7424 16.1966 85.7424 15.912H83.7424ZM84.6128 18.0361C85.1907 18.5866 85.9043 18.872 86.7024 18.872V16.872C86.4178 16.872 86.1981 16.7841 85.9921 16.5879L84.6128 18.0361ZM86.7024 18.872H92.9464V16.872H86.7024V18.872ZM92.9464 18.872C93.7296 18.872 94.4377 18.606 95.0072 18.065L93.6297 16.615C93.4524 16.7834 93.2459 16.872 92.9464 16.872V18.872ZM95.0255 18.0471C95.583 17.4896 95.8787 16.7897 95.9058 16.0025L93.907 15.9335C93.8968 16.229 93.8005 16.4437 93.6113 16.6329L95.0255 18.0471ZM95.9064 15.968V14.624H93.9064V15.968H95.9064ZM95.9064 14.624C95.9064 14.715 95.8873 14.8093 95.8482 14.8971C95.8102 14.9827 95.7622 15.0424 95.7255 15.0791L94.3113 13.6649C94.0759 13.9002 93.9064 14.2298 93.9064 14.624H95.9064ZM95.7993 14.9967C95.7593 15.0466 95.6919 15.1113 95.5916 15.1614C95.4894 15.2125 95.386 15.232 95.2984 15.232V13.232C94.8599 13.232 94.4873 13.4351 94.2375 13.7473L95.7993 14.9967ZM95.2984 15.232H96.6424V13.232H95.2984V15.232ZM96.6424 15.232C96.5548 15.232 96.4514 15.2125 96.3492 15.1614C96.2489 15.1113 96.1815 15.0466 96.1415 14.9967L97.7033 13.7473C97.4535 13.4351 97.0809 13.232 96.6424 13.232V15.232ZM96.2153 15.0791C96.1786 15.0424 96.1306 14.9827 96.0926 14.8971C96.0535 14.8093 96.0344 14.715 96.0344 14.624H98.0344C98.0344 14.2298 97.8649 13.9003 97.6295 13.6649L96.2153 15.0791ZM96.0344 14.624V15.968H98.0344V14.624H96.0344ZM96.0344 15.968C96.0344 16.3904 95.9509 16.7693 95.7904 17.1169L97.6064 17.9551C97.8939 17.3321 98.0344 16.6656 98.0344 15.968H96.0344ZM95.7904 17.1169C95.6153 17.4965 95.3842 17.828 95.0953 18.1169L96.5095 19.5311C96.9673 19.0733 97.3336 18.5461 97.6064 17.9551L95.7904 17.1169ZM95.0953 18.1169C94.8357 18.3765 94.5113 18.5991 94.1083 18.7782L94.9205 20.6058C95.5255 20.3369 96.0598 19.9808 96.5095 19.5311L95.0953 18.1169ZM94.1248 18.771C93.7703 18.921 93.3811 19 92.9464 19V21C93.6318 21 94.2878 20.8737 94.904 20.613L94.1248 18.771ZM92.9464 19H86.7024V21H92.9464V19ZM86.7024 19C86.2679 19 85.8644 18.921 85.4837 18.7659L84.7291 20.6181C85.3564 20.8737 86.0169 21 86.7024 21V19ZM85.5255 18.784C85.1356 18.6041 84.7982 18.3755 84.5072 18.099L83.1297 19.549C83.5853 19.9818 84.1065 20.3319 84.6873 20.6L85.5255 18.784ZM84.5434 18.1353C84.2728 17.8504 84.0452 17.509 83.8642 17.1019L82.0366 17.9141C82.3036 18.515 82.6547 19.051 83.0934 19.5127L84.5434 18.1353ZM83.8765 17.1307C83.7214 16.75 83.6424 16.3465 83.6424 15.912H81.6424C81.6424 16.5975 81.7687 17.258 82.0243 17.8853L83.8765 17.1307ZM83.6424 15.912V4.88H81.6424V15.912H83.6424ZM83.6424 4.88C83.6424 4.44535 83.7214 4.05609 83.8714 3.70164L82.0294 2.92236C81.7687 3.53858 81.6424 4.19465 81.6424 4.88H83.6424ZM83.8642 3.71814C84.0452 3.31098 84.2728 2.96964 84.5434 2.68475L83.0934 1.30725C82.6547 1.76903 82.3036 2.30501 82.0366 2.90586L83.8642 3.71814ZM84.5255 2.70311C84.808 2.42066 85.1295 2.20402 85.496 2.04897L84.7168 0.207032C84.1126 0.462641 83.5755 0.824671 83.1113 1.28889L84.5255 2.70311ZM85.5125 2.04181C85.8867 1.87553 86.2801 1.792 86.7024 1.792V-0.208001C86.0047 -0.208001 85.3341 -0.0675299 84.7003 0.214188L85.5125 2.04181ZM86.7024 1.792H92.9464V-0.208001H86.7024V1.792ZM92.9464 1.792C93.3688 1.792 93.7477 1.87549 94.0953 2.03596L94.9335 0.22004C94.3105 -0.0674877 93.644 -0.208001 92.9464 -0.208001V1.792ZM94.1371 2.05409C94.5173 2.20898 94.826 2.42011 95.0774 2.68475L96.5274 1.30725C96.0695 0.825222 95.5195 0.45768 94.8917 0.201907L94.1371 2.05409ZM95.1137 2.721C95.3851 2.97891 95.6101 3.29755 95.7846 3.69014L97.6122 2.87786C97.3387 2.26245 96.9663 1.72242 96.4912 1.271L95.1137 2.721ZM95.7904 3.70306C95.9509 4.05075 96.0344 4.42964 96.0344 4.852H98.0344C98.0344 4.15436 97.8939 3.48792 97.6064 2.86494L95.7904 3.70306ZM96.0344 4.852V6.168H98.0344V4.852H96.0344ZM104.686 2.92V1.92H103.686V2.92H104.686ZM104.686 9.332H103.686V10.332H104.686V9.332ZM114.766 9.472L113.985 10.0967L114.054 10.1835L114.141 10.2529L114.766 9.472ZM114.766 11.348L114.141 10.5671L114.098 10.6017L114.059 10.6409L114.766 11.348ZM104.686 11.46V10.46H103.686V11.46H104.686ZM104.686 17.872H103.686V18.872H104.686V17.872ZM116.306 18.012L115.525 18.6367L115.56 18.6799L115.599 18.7191L116.306 18.012ZM103.586 19.608V1.184H101.586V19.608H103.586ZM103.586 1.184C103.586 1.20748 103.579 1.40876 103.391 1.59711C103.203 1.78545 103.001 1.792 102.978 1.792V-0.208001C102.693 -0.208001 102.296 -0.136121 101.977 0.182892C101.658 0.501905 101.586 0.899187 101.586 1.184H103.586ZM102.978 1.792H116.026V-0.208001H102.978V1.792ZM116.026 1.792C116.002 1.792 115.801 1.78545 115.613 1.59711C115.424 1.40876 115.418 1.20748 115.418 1.184H117.418C117.418 0.899187 117.346 0.501905 117.027 0.182892C116.708 -0.136121 116.311 -0.208001 116.026 -0.208001V1.792ZM115.418 1.184V2.528H117.418V1.184H115.418ZM115.418 2.528C115.418 2.50452 115.424 2.30324 115.613 2.11489C115.801 1.92655 116.002 1.92 116.026 1.92V3.92C116.311 3.92 116.708 3.84812 117.027 3.52911C117.346 3.21009 117.418 2.81281 117.418 2.528H115.418ZM116.026 1.92H104.686V3.92H116.026V1.92ZM103.686 2.92V9.332H105.686V2.92H103.686ZM104.686 10.332H114.514V8.332H104.686V10.332ZM114.514 10.332C114.385 10.332 114.263 10.2978 114.161 10.2412C114.065 10.188 114.01 10.1276 113.985 10.0967L115.547 8.8473C115.34 8.58914 114.993 8.332 114.514 8.332V10.332ZM114.141 10.2529C114.11 10.2281 114.05 10.1724 113.997 10.0766C113.94 9.97466 113.906 9.85244 113.906 9.724H115.906C115.906 9.24492 115.649 8.89766 115.391 8.69113L114.141 10.2529ZM113.906 9.724V11.068H115.906V9.724H113.906ZM113.906 11.068C113.906 10.9804 113.925 10.877 113.976 10.7748C114.027 10.6745 114.091 10.6071 114.141 10.5671L115.391 12.1289C115.703 11.8791 115.906 11.5065 115.906 11.068H113.906ZM114.059 10.6409C114.095 10.6042 114.155 10.5562 114.241 10.5182C114.329 10.4791 114.423 10.46 114.514 10.46V12.46C114.908 12.46 115.238 12.2905 115.473 12.0551L114.059 10.6409ZM114.514 10.46H104.686V12.46H114.514V10.46ZM103.686 11.46V17.872H105.686V11.46H103.686ZM104.686 18.872H116.026V16.872H104.686V18.872ZM116.026 18.872C115.938 18.872 115.835 18.8525 115.733 18.8014C115.632 18.7513 115.565 18.6866 115.525 18.6367L117.087 17.3873C116.837 17.0751 116.464 16.872 116.026 16.872V18.872ZM115.599 18.7191C115.562 18.6824 115.514 18.6227 115.476 18.5371C115.437 18.4493 115.418 18.355 115.418 18.264H117.418C117.418 17.8698 117.248 17.5402 117.013 17.3049L115.599 18.7191ZM115.418 18.264V19.608H117.418V18.264H115.418ZM115.418 19.608C115.418 19.5845 115.424 19.3832 115.613 19.1949C115.801 19.0065 116.002 19 116.026 19V21C116.311 21 116.708 20.9281 117.027 20.6091C117.346 20.2901 117.418 19.8928 117.418 19.608H115.418ZM116.026 19H102.978V21H116.026V19ZM102.978 19C103.001 19 103.203 19.0065 103.391 19.1949C103.579 19.3832 103.586 19.5845 103.586 19.608H101.586C101.586 19.8928 101.658 20.2901 101.977 20.6091C102.296 20.9281 102.693 21 102.978 21V19Z" fill="black" fill-opacity="0.2" mask="url(#path-1-outside-1_255_9737)"/>
</g>
<defs>
<filter id="filter0_d_255_9737" x="0.548096" y="0.791992" width="119.87" height="27.208" filterUnits="userSpaceOnUse" color-interpolation-filters="sRGB">
<feFlood flood-opacity="0" result="BackgroundImageFix"/>
<feColorMatrix in="SourceAlpha" type="matrix" values="0 0 0 0 0 0 0 0 0 0 0 0 0 0 0 0 0 0 127 0" result="hardAlpha"/>
<feOffset dy="4"/>
<feGaussianBlur stdDeviation="2"/>
<feComposite in2="hardAlpha" operator="out"/>
<feColorMatrix type="matrix" values="0 0 0 0 0 0 0 0 0 0 0 0 0 0 0 0 0 0 0.25 0"/>
<feBlend mode="normal" in2="BackgroundImageFix" result="effect1_dropShadow_255_9737"/>
<feBlend mode="normal" in="SourceGraphic" in2="effect1_dropShadow_255_9737" result="shape"/>
</filter>
<linearGradient id="paint0_linear_255_9737" x1="114.216" y1="5.28572" x2="2.10216" y2="27.5152" gradientUnits="userSpaceOnUse">
<stop stop-color="#260DC1"/>
<stop offset="1" stop-color="#59006F"/>
</linearGradient>
</defs>
</svg>
